<svg width="110" height="112" viewBox="0 0 110 112" fill="none" xmlns="http://www.w3.org/2000/svg">
<rect width="110" height="111.656" rx="30" fill="#2F3061"/>
<path d="M33.8398 37.2427L68.7557 25L56.5 41.6611L39.2443 52.656L33.8398 37.2427Z" fill="#2F3061"/>
<path d="M25.8398 35.4131L60.7557 47.6558L48.5 30.9946L31.2443 19.9998L25.8398 35.4131Z" fill="#255B2D"/>
<path d="M84.1602 35.2427L49.2443 23L61.5 39.6611L78.7557 50.656L84.1602 35.2427Z" fill="#A31A5F"/>
<path d="M36.688 53.4062V64.6562H34.9155V53.4062H36.688ZM41.6099 56.7314L38.1602 60.5547L36.2705 62.4883L35.8091 60.9941L37.2373 59.229L39.4785 56.7314H41.6099ZM39.8594 64.6562L37.2886 60.9355L38.4019 59.6978L41.9028 64.6562H39.8594ZM47.4985 62.7886V56.7314H49.271V64.6562H47.6011L47.4985 62.7886ZM47.7476 61.1406L48.3408 61.126C48.3408 61.6582 48.2822 62.1489 48.165 62.5981C48.0479 63.0425 47.8672 63.4307 47.623 63.7627C47.3789 64.0898 47.0664 64.3462 46.6855 64.5317C46.3047 64.7124 45.8481 64.8027 45.3159 64.8027C44.9302 64.8027 44.5762 64.7466 44.2539 64.6343C43.9316 64.522 43.6533 64.3486 43.4189 64.1143C43.1895 63.8799 43.0112 63.5747 42.8843 63.1987C42.7573 62.8228 42.6938 62.3735 42.6938 61.8511V56.7314H44.459V61.8657C44.459 62.1538 44.4932 62.3955 44.5615 62.5908C44.6299 62.7812 44.7227 62.9351 44.8398 63.0522C44.957 63.1694 45.0938 63.2524 45.25 63.3013C45.4062 63.3501 45.5723 63.3745 45.748 63.3745C46.251 63.3745 46.6465 63.2769 46.9346 63.0815C47.2275 62.8813 47.4351 62.6128 47.5571 62.2759C47.6841 61.939 47.7476 61.5605 47.7476 61.1406ZM51.0874 53.4062H52.8525V62.9644L52.6841 64.6562H51.0874V53.4062ZM58.0234 60.6206V60.7744C58.0234 61.3604 57.9575 61.8999 57.8257 62.3931C57.6987 62.8813 57.5034 63.3062 57.2397 63.6675C56.981 64.0288 56.6587 64.3096 56.2729 64.5098C55.8921 64.7051 55.4502 64.8027 54.9473 64.8027C54.4541 64.8027 54.0244 64.71 53.6582 64.5244C53.292 64.3389 52.9844 64.0752 52.7354 63.7334C52.4912 63.3916 52.2935 62.9839 52.1421 62.5103C51.9907 62.0366 51.8833 61.5142 51.8198 60.9429V60.4521C51.8833 59.876 51.9907 59.3535 52.1421 58.8848C52.2935 58.4111 52.4912 58.0034 52.7354 57.6616C52.9844 57.3149 53.2896 57.0488 53.6509 56.8633C54.0171 56.6777 54.4443 56.585 54.9326 56.585C55.4404 56.585 55.8872 56.6826 56.2729 56.8779C56.6636 57.0732 56.9883 57.3516 57.2471 57.7129C57.5059 58.0693 57.6987 58.4941 57.8257 58.9873C57.9575 59.4805 58.0234 60.0249 58.0234 60.6206ZM56.2583 60.7744V60.6206C56.2583 60.2642 56.229 59.9297 56.1704 59.6172C56.1118 59.2998 56.0142 59.0215 55.8774 58.7822C55.7456 58.543 55.5649 58.355 55.3354 58.2183C55.1108 58.0767 54.8301 58.0059 54.4932 58.0059C54.1807 58.0059 53.9121 58.0596 53.6875 58.167C53.4629 58.2744 53.2749 58.4209 53.1235 58.6064C52.9722 58.792 52.8525 59.0068 52.7646 59.251C52.6816 59.4951 52.6255 59.7588 52.5962 60.042V61.3677C52.6401 61.7339 52.7329 62.0708 52.8745 62.3784C53.021 62.6812 53.2261 62.9253 53.4897 63.1108C53.7534 63.2915 54.0928 63.3818 54.5078 63.3818C54.835 63.3818 55.1108 63.3159 55.3354 63.1841C55.5601 63.0522 55.7383 62.8691 55.8701 62.6348C56.0068 62.3955 56.1045 62.1172 56.1631 61.7998C56.2266 61.4824 56.2583 61.1406 56.2583 60.7744ZM63.9854 63.0669V59.2876C63.9854 59.0044 63.9341 58.7603 63.8315 58.5552C63.729 58.3501 63.5728 58.1914 63.3628 58.0791C63.1577 57.9668 62.8989 57.9106 62.5864 57.9106C62.2983 57.9106 62.0493 57.9595 61.8394 58.0571C61.6294 58.1548 61.4658 58.2866 61.3486 58.4526C61.2314 58.6187 61.1729 58.8066 61.1729 59.0166H59.415C59.415 58.7041 59.4907 58.4014 59.6421 58.1084C59.7935 57.8154 60.0132 57.5542 60.3013 57.3247C60.5894 57.0952 60.9336 56.9146 61.334 56.7827C61.7344 56.6509 62.1836 56.585 62.6816 56.585C63.2773 56.585 63.8047 56.6851 64.2637 56.8853C64.7275 57.0854 65.0913 57.3882 65.355 57.7935C65.6235 58.1938 65.7578 58.6968 65.7578 59.3022V62.8252C65.7578 63.1865 65.7822 63.5112 65.8311 63.7993C65.8848 64.0825 65.9604 64.3291 66.0581 64.5391V64.6562H64.249C64.166 64.4658 64.1001 64.2241 64.0513 63.9312C64.0073 63.6333 63.9854 63.3452 63.9854 63.0669ZM64.2417 59.8369L64.2563 60.9282H62.9893C62.6621 60.9282 62.374 60.96 62.125 61.0234C61.876 61.082 61.6685 61.1699 61.5024 61.2871C61.3364 61.4043 61.2119 61.5459 61.1289 61.7119C61.0459 61.8779 61.0044 62.0659 61.0044 62.2759C61.0044 62.4858 61.0532 62.6787 61.1509 62.8545C61.2485 63.0254 61.3901 63.1597 61.5757 63.2573C61.7661 63.355 61.9956 63.4038 62.2642 63.4038C62.6255 63.4038 62.9404 63.3306 63.209 63.1841C63.4824 63.0327 63.6973 62.8496 63.8535 62.6348C64.0098 62.415 64.0928 62.2075 64.1025 62.0122L64.6738 62.7959C64.6152 62.9961 64.5151 63.2109 64.3735 63.4404C64.2319 63.6699 64.0464 63.8896 63.8169 64.0996C63.5923 64.3047 63.3213 64.4731 63.0039 64.605C62.6914 64.7368 62.3301 64.8027 61.9199 64.8027C61.4023 64.8027 60.9409 64.7002 60.5356 64.4951C60.1304 64.2852 59.813 64.0044 59.5835 63.6528C59.354 63.2964 59.2393 62.8936 59.2393 62.4443C59.2393 62.0244 59.3174 61.6533 59.4736 61.3311C59.6348 61.0039 59.8691 60.7305 60.1768 60.5107C60.4893 60.291 60.8701 60.125 61.3193 60.0127C61.7686 59.8955 62.2812 59.8369 62.8574 59.8369H64.2417ZM69.354 58.4233V64.6562H67.5889V56.7314H69.2515L69.354 58.4233ZM69.0391 60.4009L68.4678 60.3936C68.4727 59.832 68.5508 59.3169 68.7021 58.8481C68.8584 58.3794 69.0732 57.9766 69.3467 57.6396C69.625 57.3027 69.957 57.0439 70.3428 56.8633C70.7285 56.6777 71.1582 56.585 71.6318 56.585C72.0127 56.585 72.3569 56.6387 72.6646 56.7461C72.9771 56.8486 73.2432 57.0171 73.4629 57.2515C73.6875 57.4858 73.8584 57.791 73.9756 58.167C74.0928 58.5381 74.1514 58.9946 74.1514 59.5366V64.6562H72.3789V59.5293C72.3789 59.1484 72.3228 58.8481 72.2104 58.6284C72.103 58.4038 71.9443 58.2451 71.7344 58.1523C71.5293 58.0547 71.2729 58.0059 70.9653 58.0059C70.6626 58.0059 70.3916 58.0693 70.1523 58.1963C69.9131 58.3232 69.7104 58.4966 69.5444 58.7163C69.3833 58.936 69.2588 59.1899 69.1709 59.478C69.083 59.7661 69.0391 60.0737 69.0391 60.4009Z" fill="#F7FFF7"/>
<path d="M29.7412 72.8066V76.2344H20.1904V72.8066H29.7412ZM22.1973 68.8662H27.1338V83.4854C27.1338 83.9053 27.1826 84.2324 27.2803 84.4668C27.3779 84.6914 27.5439 84.8525 27.7783 84.9502C28.0225 85.0381 28.3447 85.082 28.7451 85.082C29.0283 85.082 29.2627 85.0771 29.4482 85.0674C29.6338 85.0479 29.8096 85.0234 29.9756 84.9941V88.5244C29.5557 88.6611 29.1162 88.7637 28.6572 88.832C28.1982 88.9102 27.71 88.9492 27.1924 88.9492C26.1377 88.9492 25.2344 88.7832 24.4824 88.4512C23.7402 88.1191 23.1738 87.5967 22.7832 86.8838C22.3926 86.1709 22.1973 85.2432 22.1973 84.1006V68.8662ZM36.6846 76.7324V88.6562H31.748V72.8066H36.3623L36.6846 76.7324ZM41.3721 72.6895L41.2842 77.2744C41.0889 77.2549 40.8252 77.2305 40.4932 77.2012C40.1611 77.1719 39.8828 77.1572 39.6582 77.1572C39.082 77.1572 38.584 77.2256 38.1641 77.3623C37.7539 77.4893 37.4121 77.6846 37.1387 77.9482C36.875 78.2021 36.6797 78.5244 36.5527 78.915C36.4355 79.3057 36.3818 79.7598 36.3916 80.2773L35.498 79.6914C35.498 78.627 35.6006 77.6602 35.8057 76.791C36.0205 75.9121 36.3232 75.1553 36.7139 74.5205C37.1045 73.876 37.5781 73.3828 38.1348 73.041C38.6914 72.6895 39.3164 72.5137 40.0098 72.5137C40.2539 72.5137 40.4932 72.5283 40.7275 72.5576C40.9717 72.5869 41.1865 72.6309 41.3721 72.6895ZM50.8643 84.6719V78.1387C50.8643 77.6895 50.8008 77.3037 50.6738 76.9814C50.5469 76.6592 50.3467 76.4102 50.0732 76.2344C49.7998 76.0488 49.4336 75.9561 48.9746 75.9561C48.6035 75.9561 48.2861 76.0195 48.0225 76.1465C47.7588 76.2734 47.5586 76.4639 47.4219 76.7178C47.2852 76.9717 47.2168 77.2939 47.2168 77.6846H42.2803C42.2803 76.9521 42.4414 76.2734 42.7637 75.6484C43.0957 75.0137 43.5645 74.4619 44.1699 73.9932C44.7852 73.5244 45.5176 73.1631 46.3672 72.9092C47.2266 72.6455 48.1836 72.5137 49.2383 72.5137C50.498 72.5137 51.6211 72.7236 52.6074 73.1436C53.6035 73.5635 54.3896 74.1934 54.9658 75.0332C55.542 75.8633 55.8301 76.9082 55.8301 78.168V84.6572C55.8301 85.6924 55.8887 86.4785 56.0059 87.0156C56.123 87.543 56.2891 88.0068 56.5039 88.4072V88.6562H51.5527C51.3184 88.168 51.1426 87.5723 51.0254 86.8691C50.918 86.1562 50.8643 85.4238 50.8643 84.6719ZM51.4648 78.9736L51.4941 81.6104H49.3115C48.8525 81.6104 48.4619 81.6738 48.1396 81.8008C47.8271 81.9277 47.5732 82.1035 47.3779 82.3281C47.1924 82.543 47.0557 82.7871 46.9678 83.0605C46.8896 83.334 46.8506 83.6221 46.8506 83.9248C46.8506 84.2178 46.9189 84.4814 47.0557 84.7158C47.2021 84.9404 47.3975 85.1162 47.6416 85.2432C47.8857 85.3701 48.1592 85.4336 48.4619 85.4336C49.0088 85.4336 49.4727 85.3311 49.8535 85.126C50.2441 84.9111 50.542 84.6523 50.7471 84.3496C50.9521 84.0469 51.0547 83.7637 51.0547 83.5L52.1387 85.5215C51.9434 85.9121 51.7188 86.3076 51.4648 86.708C51.2207 87.1084 50.9131 87.4795 50.542 87.8213C50.1807 88.1533 49.7363 88.4268 49.209 88.6416C48.6816 88.8467 48.042 88.9492 47.29 88.9492C46.3135 88.9492 45.415 88.749 44.5947 88.3486C43.7842 87.9482 43.1348 87.3916 42.6465 86.6787C42.1582 85.9561 41.9141 85.126 41.9141 84.1885C41.9141 83.3682 42.0605 82.6357 42.3535 81.9912C42.6562 81.3467 43.1104 80.7998 43.7158 80.3506C44.3213 79.9014 45.0928 79.5596 46.0303 79.3252C46.9678 79.0908 48.0713 78.9736 49.3408 78.9736H51.4648ZM65.2637 85.1406C65.7227 85.1406 66.1133 85.0576 66.4355 84.8916C66.7676 84.7158 67.0166 84.4717 67.1826 84.1592C67.3584 83.8369 67.4414 83.4512 67.4316 83.002H72.0752C72.085 84.1934 71.792 85.2383 71.1963 86.1367C70.6104 87.0254 69.8096 87.7188 68.7939 88.2168C67.7881 88.7051 66.6504 88.9492 65.3809 88.9492C64.1406 88.9492 63.0566 88.749 62.1289 88.3486C61.2012 87.9385 60.4248 87.3721 59.7998 86.6494C59.1846 85.917 58.7207 85.0625 58.4082 84.0859C58.1055 83.1094 57.9541 82.0498 57.9541 80.9072V80.5703C57.9541 79.4277 58.1055 78.3682 58.4082 77.3916C58.7207 76.4053 59.1846 75.5508 59.7998 74.8281C60.4248 74.0957 61.1963 73.5293 62.1143 73.1289C63.042 72.7188 64.1211 72.5137 65.3516 72.5137C66.6699 72.5137 67.832 72.7627 68.8379 73.2607C69.8535 73.7588 70.6494 74.4814 71.2256 75.4287C71.8018 76.376 72.085 77.5234 72.0752 78.8711H67.4316C67.4414 78.3926 67.3682 77.9629 67.2119 77.582C67.0557 77.2012 66.8115 76.8984 66.4795 76.6738C66.1572 76.4395 65.7422 76.3223 65.2344 76.3223C64.7266 76.3223 64.3164 76.4346 64.0039 76.6592C63.6914 76.8838 63.4521 77.1963 63.2861 77.5967C63.1299 77.9873 63.0225 78.4365 62.9639 78.9443C62.915 79.4521 62.8906 79.9941 62.8906 80.5703V80.9072C62.8906 81.4932 62.915 82.0449 62.9639 82.5625C63.0225 83.0703 63.1348 83.5195 63.3008 83.9102C63.4668 84.291 63.7061 84.5938 64.0186 84.8184C64.3311 85.0332 64.7461 85.1406 65.2637 85.1406ZM79.165 66.1416V88.6562H74.2285V66.1416H79.165ZM89.3018 72.8066L82.417 80.8779L78.8135 84.4814L76.6602 81.3467L79.6631 77.4355L83.3838 72.8066H89.3018ZM84.0137 88.6562L79.7803 81.4346L83.4277 78.8418L89.668 88.6562H84.0137Z" fill="#F7FFF7"/>
</svg>
